<svg width="410" height="410" viewBox="0 0 410 410" fill="none" xmlns="http://www.w3.org/2000/svg">
<circle cx="205" cy="205" r="200" fill="#F2C94C" stroke="#2F80ED" stroke-width="10"/>
<g filter="url(#filter0_d_2_33)">
<path d="M52.4687 334.247L47.5907 333.149L47.0416 335.589L48.6652 337.492L52.4687 334.247ZM113.595 62.5763L114.692 57.6982L109.814 56.6006L108.716 61.4787L113.595 62.5763ZM114.57 62.7958L119.448 63.8933L120.546 59.0153L115.668 57.9177L114.57 62.7958ZM53.2809 335.193L49.4975 338.461L55.9818 345.966L58.1589 336.29L53.2809 335.193ZM83.9178 363.941L79.0155 362.957L78.3988 366.03L80.896 367.924L83.9178 363.941ZM123.345 167.469L124.329 162.567L119.426 161.583L118.443 166.485L123.345 167.469ZM124.325 167.666L129.228 168.65L130.211 163.747L125.309 162.763L124.325 167.666ZM84.8036 364.609L81.804 368.609L88.1462 373.365L89.7059 365.592L84.8036 364.609ZM316.211 370.533L311.309 371.517L312.784 378.867L319.003 374.681L316.211 370.533ZM275.5 167.666L274.517 162.763L269.614 163.747L270.598 168.65L275.5 167.666ZM276.481 167.469L281.383 166.485L280.399 161.583L275.497 162.567L276.481 167.469ZM317.109 369.925L319.923 374.058L322.663 372.192L322.011 368.941L317.109 369.925ZM348.425 343.551L343.547 344.648L345.58 353.682L352.019 347.027L348.425 343.551ZM285.255 62.7958L284.158 57.9177L279.28 59.0153L280.377 63.8933L285.255 62.7958ZM286.231 62.5763L291.109 61.4787L290.011 56.6006L285.133 57.6982L286.231 62.5763ZM349.256 342.687L352.87 346.142L354.722 344.204L354.134 341.589L349.256 342.687ZM199.913 230.827L195.441 233.063L199.913 242.008L204.385 233.063L199.913 230.827ZM285.683 59.2877L287.919 54.8155L283.447 52.5795L281.21 57.0516L285.683 59.2877ZM114.143 59.2877L118.615 57.0516L116.379 52.5795L111.907 54.8155L114.143 59.2877ZM113.249 59.7349L111.013 55.2627L106.54 57.4988L108.776 61.9709L113.249 59.7349ZM199.354 231.945L203.826 234.181L204.944 231.945L203.826 229.709L199.354 231.945ZM190.444 249.764L185.972 247.528L183.736 252L188.208 254.236L190.444 249.764ZM191.339 250.211L189.103 254.683L193.575 256.919L195.811 252.447L191.339 250.211ZM199.913 233.063L204.385 230.827L199.913 221.883L195.441 230.827L199.913 233.063ZM208.487 250.211L204.015 252.447L206.251 256.919L210.723 254.683L208.487 250.211ZM209.381 249.764L211.617 254.236L216.089 252L213.853 247.528L209.381 249.764ZM200.472 231.945L196 229.709L194.882 231.945L196 234.181L200.472 231.945ZM286.577 59.7349L291.049 61.9709L293.285 57.4988L288.813 55.2627L286.577 59.7349ZM199.365 335.712L203.932 337.748L204.84 335.712L203.932 333.676L199.365 335.712ZM122.915 164.278L120.879 159.711L116.312 161.748L118.348 166.314L122.915 164.278ZM191.055 354.347L186.489 352.31L184.452 356.877L189.019 358.913L191.055 354.347ZM191.969 354.754L189.932 359.32L194.499 361.357L196.535 356.79L191.969 354.754ZM199.913 336.94L204.479 334.903L199.913 324.663L195.346 334.903L199.913 336.94ZM207.857 354.754L203.291 356.79L205.327 361.357L209.893 359.32L207.857 354.754ZM208.77 354.347L210.807 358.913L215.373 356.877L213.337 352.31L208.77 354.347ZM200.46 335.712L195.894 333.676L194.986 335.712L195.894 337.748L200.46 335.712ZM276.911 164.278L281.477 166.314L283.514 161.748L278.947 159.711L276.911 164.278ZM275.997 163.871L278.034 159.304L273.467 157.268L271.431 161.834L275.997 163.871ZM199.913 334.484L195.346 336.521L199.913 346.761L204.479 336.521L199.913 334.484ZM123.828 163.871L128.395 161.834L126.358 157.268L121.792 159.304L123.828 163.871ZM57.3468 335.344L118.473 63.6738L108.716 61.4787L47.5907 333.149L57.3468 335.344ZM112.497 67.4543L113.473 67.6738L115.668 57.9177L114.692 57.6982L112.497 67.4543ZM109.692 61.6982L48.4028 334.095L58.1589 336.29L119.448 63.8933L109.692 61.6982ZM57.0643 331.924C56.7993 331.617 56.5352 331.309 56.2722 331.001L48.6652 337.492C48.9417 337.816 49.2191 338.139 49.4975 338.461L57.0643 331.924ZM88.82 364.924L128.247 168.453L118.443 166.485L79.0155 362.957L88.82 364.924ZM122.361 172.371L123.342 172.568L125.309 162.763L124.329 162.567L122.361 172.371ZM119.423 166.682L79.9014 363.625L89.7059 365.592L129.228 168.65L119.423 166.682ZM87.8032 360.608C87.5148 360.392 87.2269 360.175 86.9396 359.957L80.896 367.924C81.1979 368.153 81.5006 368.381 81.804 368.609L87.8032 360.608ZM321.113 369.549L280.403 166.682L270.598 168.65L311.309 371.517L321.113 369.549ZM276.484 172.568L277.464 172.371L275.497 162.567L274.517 162.763L276.484 172.568ZM271.578 168.453L312.206 370.909L322.011 368.941L281.383 166.485L271.578 168.453ZM314.294 365.792C314.003 365.991 313.711 366.188 313.419 366.385L319.003 374.681C319.31 374.474 319.617 374.266 319.923 374.058L314.294 365.792ZM353.303 342.453L290.133 61.6982L280.377 63.8933L343.547 344.648L353.303 342.453ZM286.353 67.6738L287.329 67.4543L285.133 57.6982L284.158 57.9177L286.353 67.6738ZM281.353 63.6738L344.378 343.784L354.134 341.589L291.109 61.4787L281.353 63.6738ZM345.642 339.232C345.373 339.513 345.103 339.794 344.832 340.074L352.019 347.027C352.303 346.733 352.587 346.438 352.87 346.142L345.642 339.232ZM204.385 233.063L290.155 61.5237L281.21 57.0516L195.441 228.591L204.385 233.063ZM109.671 61.5237L195.441 233.063L204.385 228.591L118.615 57.0516L109.671 61.5237ZM115.485 64.207L116.379 63.7598L111.907 54.8155L111.013 55.2627L115.485 64.207ZM203.826 229.709L117.721 57.4988L108.776 61.9709L194.882 234.181L203.826 229.709ZM194.917 252L203.826 234.181L194.882 229.709L185.972 247.528L194.917 252ZM193.575 245.739L192.681 245.292L188.208 254.236L189.103 254.683L193.575 245.739ZM195.441 230.827L186.867 247.975L195.811 252.447L204.385 235.299L195.441 230.827ZM212.959 247.975L204.385 230.827L195.441 235.299L204.015 252.447L212.959 247.975ZM207.145 245.292L206.251 245.739L210.723 254.683L211.617 254.236L207.145 245.292ZM196 234.181L204.909 252L213.853 247.528L204.944 229.709L196 234.181ZM282.105 57.4988L196 229.709L204.944 234.181L291.049 61.9709L282.105 57.4988ZM283.447 63.7598L284.341 64.207L288.813 55.2627L287.919 54.8155L283.447 63.7598ZM203.932 333.676L127.481 162.241L118.348 166.314L194.799 337.748L203.932 333.676ZM195.622 356.383L203.932 337.748L194.799 333.676L186.489 352.31L195.622 356.383ZM194.005 350.187L193.092 349.78L189.019 358.913L189.932 359.32L194.005 350.187ZM195.346 334.903L187.402 352.718L196.535 356.79L204.479 338.976L195.346 334.903ZM212.424 352.718L204.479 334.903L195.346 338.976L203.291 356.79L212.424 352.718ZM206.734 349.78L205.821 350.187L209.893 359.32L210.807 358.913L206.734 349.78ZM195.894 337.748L204.204 356.383L213.337 352.31L205.027 333.676L195.894 337.748ZM272.344 162.241L195.894 333.676L205.027 337.748L281.477 166.314L272.344 162.241ZM273.961 168.437L274.874 168.844L278.947 159.711L278.034 159.304L273.961 168.437ZM204.479 336.521L280.564 165.907L271.431 161.834L195.346 332.448L204.479 336.521ZM119.262 165.907L195.346 336.521L204.479 332.448L128.395 161.834L119.262 165.907ZM124.951 168.844L125.865 168.437L121.792 159.304L120.879 159.711L124.951 168.844Z" fill="#2F80ED"/>
</g>
<defs>
<filter id="filter0_d_2_33" x="43.0416" y="52.5795" width="315.681" height="334.287" filterUnits="userSpaceOnUse" color-interpolation-filters="sRGB">
<feFlood flood-opacity="0" result="BackgroundImageFix"/>
<feColorMatrix in="SourceAlpha" type="matrix" values="0 0 0 0 0 0 0 0 0 0 0 0 0 0 0 0 0 0 127 0" result="hardAlpha"/>
<feOffset dy="4"/>
<feGaussianBlur stdDeviation="2"/>
<feComposite in2="hardAlpha" operator="out"/>
<feColorMatrix type="matrix" values="0 0 0 0 0 0 0 0 0 0 0 0 0 0 0 0 0 0 0.25 0"/>
<feBlend mode="normal" in2="BackgroundImageFix" result="effect1_dropShadow_2_33"/>
<feBlend mode="normal" in="SourceGraphic" in2="effect1_dropShadow_2_33" result="shape"/>
</filter>
</defs>
</svg>
